<?xml version="1.0" encoding="UTF-8"?>
<svg id="Calque_1" data-name="Calque 1" xmlns="http://www.w3.org/2000/svg" viewBox="0 0 600 585">
  <defs>
    <style>
      .cls-1 {
        fill: none;
      }

      .cls-2 {
        fill: #03aca9;
      }
    </style>
  </defs>
  <path class="cls-1" d="M493.75,585h106.25v-106.25c0,58.68-47.57,106.25-106.25,106.25Z"/>
  <path class="cls-1" d="M0,478.75v106.25h106.25c-58.68,0-106.25-47.57-106.25-106.25Z"/>
  <path class="cls-1" d="M106.25,0H0v106.25C0,47.57,47.57,0,106.25,0Z"/>
  <path class="cls-1" d="M493.75,0c58.68,0,106.25,47.57,106.25,106.25V0h-106.25Z"/>
  <path class="cls-2" d="M493.75,0H106.25C47.57,0,0,47.57,0,106.25v372.5c0,58.68,47.57,106.25,106.25,106.25h387.5c58.68,0,106.25-47.57,106.25-106.25V106.25c0-58.68-47.57-106.25-106.25-106.25ZM309.41,291.1c-9.99,14.01-24.04,24.61-40.25,30.39-16.91,6.31-35.69,8.45-56.35,8.45-5.91,0-10.06-.07-12.48-.2-2.41-.13-6.04-.2-10.87-.2v80.3c.07.49.03.99-.13,1.47s-.42.9-.77,1.25c-.35.35-.78.62-1.25.77-.47.16-.97.2-1.47.13h-47.92c-1.88,0-2.82-1.07-2.82-3.22V153.04c0-1.87.81-2.82,2.42-2.82,4.29,0,8.2-.06,14.11-.2,5.9-.13,12.27-.27,19.12-.4,6.84-.13,14.09-.27,21.74-.4,7.65-.13,15.23-.2,22.74-.2,20.39,0,37.56,2.55,51.52,7.65,12.59,4.26,24.07,11.27,33.61,20.53,8.09,8.02,14.33,17.7,18.31,28.38,3.77,10.39,5.67,21.35,5.64,32.4,0,21.47-4.96,39.18-14.89,53.13ZM485.97,388.51c-6.99,9.97-16.7,17.73-27.97,22.34-12.21,5.37-27.31,8.05-45.28,8.05-11.42.12-22.82-.96-34.01-3.22-8.82-1.62-17.4-4.32-25.56-8.05-.88-.45-1.61-1.15-2.11-2.01-.5-.86-.74-1.84-.71-2.82v-43.47c-.05-.43.02-.86.2-1.25.18-.39.46-.72.81-.97.35-.2.74-.28,1.14-.24.4.04.77.19,1.08.45,9.63,5.68,20.09,9.82,30.99,12.28,9.61,2.41,19.47,3.69,29.38,3.82,9.39,0,16.3-1.21,20.73-3.62,2-.92,3.69-2.39,4.87-4.25,1.18-1.86,1.79-4.02,1.77-6.22,0-3.48-2.01-6.84-6.04-10.06-4.02-3.22-12.21-7.11-24.55-11.67-12.64-4.4-24.62-10.49-35.62-18.11-7.87-5.47-14.35-12.71-18.92-21.13-3.96-7.93-5.96-16.7-5.84-25.56-.02-10.65,2.9-21.1,8.45-30.19,6.33-10.01,15.41-17.98,26.16-22.94,11.8-5.9,26.56-8.85,44.28-8.86,10.37-.08,20.74.66,30.99,2.21,7.43.94,14.69,2.91,21.58,5.84.55.16,1.05.44,1.47.82.42.38.74.86.95,1.39.27.98.41,2,.4,3.02v40.65c.03.47-.07.95-.28,1.37-.21.42-.53.78-.93,1.05-.54.27-1.13.41-1.73.41s-1.19-.14-1.73-.41c-7.56-3.89-15.62-6.73-23.95-8.45-9.18-2.11-18.56-3.19-27.97-3.22-5.09-.14-10.18.47-15.09,1.81-3.13.7-5.91,2.48-7.85,5.03-1.31,2.04-2.01,4.42-2.01,6.84.07,2.35.92,4.62,2.41,6.44,2.35,2.75,5.22,5.01,8.45,6.64,5.74,3.09,11.65,5.85,17.71,8.25,13.51,4.52,26.42,10.67,38.44,18.31,8.19,5.17,14.97,12.29,19.72,20.73,4,7.99,6,16.83,5.84,25.76.24,11.79-3.13,23.38-9.66,33.21Z"/>
  <path class="cls-2" d="M246.22,202.75c-9.36-3.64-19.35-5.35-29.38-5.03-6.44,0-12.14.07-17.11.2-4.97.14-8.39.34-10.26.6v83.89c3.48.27,6.7.4,9.66.4h13.28c9.77-.03,19.48-1.58,28.78-4.59,7.97-2.37,15.1-6.98,20.53-13.28,5.23-6.17,7.85-14.76,7.85-25.76.21-7.79-1.81-15.47-5.84-22.14-4.23-6.45-10.34-11.44-17.51-14.29Z"/>
  <path class="cls-1" d="M300.35,177.19c-9.54-9.26-21.02-16.27-33.61-20.53-13.96-5.1-31.13-7.65-51.52-7.65-7.51,0-15.09.07-22.74.2-7.65.14-14.89.27-21.74.4-6.85.14-13.22.27-19.12.4-5.91.14-9.82.2-14.11.2-1.61,0-2.42.94-2.42,2.82v257.2c0,2.15.94,3.22,2.82,3.22h47.92c.49.07.99.02,1.47-.13.47-.16.9-.42,1.25-.77.35-.35.62-.78.77-1.25s.2-.97.13-1.47v-80.3c4.83,0,8.45.07,10.87.2,2.41.13,6.57.2,12.48.2,20.66,0,39.45-2.14,56.35-8.45,16.21-5.78,30.26-16.38,40.25-30.39,9.93-13.95,14.89-31.66,14.89-53.13.04-11.05-1.87-22.02-5.64-32.4-3.98-10.67-10.23-20.35-18.31-28.38ZM261.71,264.93c-5.43,6.3-12.55,10.91-20.53,13.28-9.3,3.01-19.01,4.56-28.78,4.59h-13.28c-2.96,0-6.18-.13-9.66-.4v-83.89c1.87-.26,5.3-.47,10.26-.6,4.96-.13,10.66-.2,17.11-.2,10.03-.32,20.03,1.39,29.38,5.03,7.17,2.85,13.28,7.84,17.51,14.29,4.02,6.67,6.05,14.35,5.84,22.14,0,11-2.62,19.59-7.85,25.76Z"/>
  <path class="cls-1" d="M470.07,308.81c-12.02-7.64-24.93-13.79-38.44-18.31-6.06-2.41-11.97-5.16-17.71-8.25-3.23-1.63-6.1-3.89-8.45-6.64-1.49-1.82-2.34-4.09-2.41-6.44,0-2.43.7-4.8,2.01-6.84,1.94-2.55,4.72-4.33,7.85-5.03,4.92-1.34,10-1.95,15.09-1.81,9.41.04,18.8,1.12,27.97,3.22,8.33,1.72,16.38,4.57,23.95,8.45.54.27,1.13.41,1.73.41s1.19-.14,1.73-.41c.39-.26.71-.62.93-1.05.21-.42.31-.9.28-1.37v-40.65c0-1.02-.13-2.04-.4-3.02-.2-.53-.53-1.01-.95-1.39-.42-.38-.92-.67-1.47-.82-6.89-2.93-14.15-4.89-21.58-5.84-10.26-1.56-20.62-2.3-30.99-2.21-17.71,0-32.47,2.96-44.28,8.86-10.75,4.97-19.84,12.93-26.16,22.94-5.55,9.09-8.48,19.54-8.45,30.19-.12,8.86,1.88,17.63,5.84,25.56,4.57,8.42,11.05,15.66,18.92,21.13,11,7.62,22.98,13.71,35.62,18.11,12.34,4.56,20.53,8.45,24.55,11.67,4.02,3.22,6.04,6.58,6.04,10.06.02,2.2-.59,4.36-1.77,6.22-1.18,1.86-2.87,3.33-4.87,4.25-4.43,2.41-11.34,3.62-20.73,3.62-9.91-.13-19.77-1.41-29.38-3.82-10.91-2.46-21.36-6.6-30.99-12.28-.3-.25-.68-.41-1.08-.45-.39-.04-.79.05-1.14.24-.35.24-.63.58-.81.97-.18.39-.25.82-.2,1.25v43.47c-.04.99.21,1.97.71,2.82.5.86,1.23,1.55,2.11,2.01,8.15,3.73,16.74,6.43,25.56,8.05,11.19,2.26,22.59,3.34,34.01,3.22,17.97,0,33.07-2.69,45.28-8.05,11.27-4.61,20.98-12.36,27.97-22.34,6.53-9.83,9.9-21.41,9.66-33.21.16-8.93-1.84-17.77-5.84-25.76-4.76-8.44-11.53-15.56-19.72-20.73Z"/>
</svg>