<?xml version="1.0" encoding="UTF-8"?>
<svg id="Calque_1" data-name="Calque 1" xmlns="http://www.w3.org/2000/svg" viewBox="0 0 599.3 584.32">
  <defs>
    <style>
      .cls-1 {
        fill: none;
      }

      .cls-2 {
        fill: #03aca9;
      }
    </style>
  </defs>
  <path class="cls-2" d="M263.07,260.41c-2.41-7.64-4.83-15.28-7.24-22.92-2.41-7.64-4.62-15.01-6.63-22.11-2.01-7.1-3.82-13.6-5.43-19.5h-.4c-2.26,10.86-5.08,21.59-8.44,32.16-3.76,12.06-7.58,24.39-11.46,36.99-3.89,12.6-7.71,24.26-11.46,34.98h63.52c-1.61-5.36-3.48-11.39-5.63-18.09-2.15-6.7-4.43-13.87-6.83-21.51Z"/>
  <path class="cls-2" d="M493.18,0H106.13C47.51,0,0,47.51,0,106.13v372.07c0,58.61,47.51,106.13,106.13,106.13h387.05c58.61,0,106.13-47.51,106.13-106.13V106.13c0-58.61-47.51-106.13-106.13-106.13ZM367.2,412.98h-52.26c-.9.1-1.8-.13-2.54-.65-.74-.52-1.27-1.29-1.48-2.16l-20.5-59.5h-92.87l-18.9,58.7c-.26,1.07-.88,2.02-1.76,2.68-.88.66-1.96.99-3.06.94h-47.04c-2.68,0-3.62-1.47-2.81-4.42l80.41-231.57c.8-2.41,1.61-5.16,2.41-8.24,1.05-5.36,1.59-10.82,1.61-16.28-.05-.38-.02-.77.1-1.14.12-.37.33-.7.6-.97s.61-.48.97-.6c.37-.12.76-.16,1.14-.1h63.92c1.87,0,2.95.67,3.22,2.01l91.26,257.3c.8,2.68,0,4.02-2.41,4.02ZM452.02,408.96c0,2.68-1.07,4.02-3.22,4.02h-49.05c-2.41,0-3.62-1.34-3.62-4.02v-192.17c0-2.41,1.07-3.62,3.22-3.62h49.45c2.14,0,3.21,1.21,3.22,3.62v192.17ZM453.65,172.84c-1.48,3.94-3.75,7.53-6.65,10.58-3.03,2.99-6.65,5.32-10.63,6.84-3.98,1.52-8.23,2.2-12.48,2-4.1.17-8.19-.54-12-2.06-3.81-1.52-7.26-3.84-10.11-6.78-2.85-3.08-5.06-6.68-6.51-10.61-1.45-3.93-2.11-8.11-1.93-12.3-.15-4.15.58-8.28,2.14-12.12,1.56-3.84,3.91-7.32,6.9-10.19,2.96-2.84,6.46-5.07,10.29-6.56,3.83-1.48,7.92-2.19,12.02-2.09,9.65,0,17.22,2.88,22.72,8.64,2.77,2.99,4.93,6.51,6.34,10.34,1.41,3.83,2.06,7.9,1.9,11.98.17,4.2-.51,8.4-2,12.33Z"/>
  <path class="cls-1" d="M278.35,151.66c-.27-1.34-1.34-2.01-3.22-2.01h-63.92c-.38-.05-.77-.02-1.14.1-.37.12-.7.33-.97.6s-.48.61-.6.97c-.12.37-.16.76-.1,1.14-.02,5.47-.56,10.92-1.61,16.28-.8,3.08-1.61,5.83-2.41,8.24l-80.41,231.57c-.81,2.95.13,4.42,2.81,4.42h47.04c1.1.05,2.18-.28,3.06-.94.88-.66,1.5-1.61,1.76-2.68l18.9-58.7h92.87l20.5,59.5c.21.88.74,1.65,1.48,2.16.74.52,1.64.75,2.54.65h52.26c2.41,0,3.22-1.34,2.41-4.02l-91.26-257.3ZM212.02,300.01c3.75-10.72,7.57-22.38,11.46-34.98,3.88-12.6,7.7-24.93,11.46-36.99,3.36-10.57,6.18-21.3,8.44-32.16h.4c1.61,5.9,3.42,12.4,5.43,19.5,2.01,7.1,4.22,14.47,6.63,22.11,2.41,7.64,4.83,15.28,7.24,22.92,2.41,7.64,4.69,14.81,6.83,21.51,2.14,6.7,4.02,12.73,5.63,18.09h-63.52Z"/>
  <path class="cls-1" d="M448.81,213.17h-49.45c-2.15,0-3.22,1.21-3.22,3.62v192.17c0,2.68,1.21,4.02,3.62,4.02h49.05c2.14,0,3.22-1.34,3.22-4.02v-192.17c0-2.41-1.07-3.62-3.22-3.62Z"/>
  <path class="cls-1" d="M447.4,138.19c-5.49-5.76-13.07-8.64-22.72-8.64-4.11-.11-8.19.6-12.02,2.09-3.83,1.48-7.33,3.71-10.29,6.56-2.99,2.87-5.34,6.35-6.9,10.19-1.56,3.84-2.29,7.98-2.14,12.12-.17,4.19.48,8.37,1.93,12.3,1.45,3.93,3.66,7.54,6.51,10.61,2.86,2.95,6.3,5.26,10.11,6.78,3.81,1.52,7.9,2.23,12,2.06,4.26.2,8.51-.48,12.48-2,3.98-1.52,7.6-3.85,10.63-6.84,2.9-3.05,5.16-6.64,6.65-10.58,1.48-3.94,2.16-8.13,2-12.33.16-4.08-.48-8.15-1.9-11.98-1.41-3.83-3.57-7.34-6.34-10.34Z"/>
</svg>