<?xml version="1.0" encoding="UTF-8"?>
<svg id="Calque_1" data-name="Calque 1" xmlns="http://www.w3.org/2000/svg" viewBox="0 0 154.98 55.15">
  <defs>
    <style>
      .cls-1 {
        fill: #223a89;
      }
    </style>
  </defs>
  <g>
    <path class="cls-1" d="M43.51,11.64C32.36.5,16.21-2.66,2.26,2.23l-.04.05C-2.65,16.23.5,32.36,11.64,43.51c11.16,11.16,27.3,14.29,41.27,9.4h0c4.89-13.97,1.75-30.1-9.4-41.27ZM45.38,45.37h0c-9.55,1.79-19.79-1.02-27.18-8.41-7.26-7.27-10.09-17.28-8.5-26.69.03-.17.05-.33.09-.5h0c9.55-1.78,19.79,1.02,27.19,8.41,7.39,7.39,10.19,17.63,8.41,27.18Z"/>
    <g>
      <path class="cls-1" d="M84.53,17.65v16.31c0,2.52-.71,4.47-2.13,5.83s-3.34,2.05-5.75,2.05-4.55-.72-6.07-2.15c-1.52-1.43-2.29-3.47-2.29-6.11h5.8c0,1,.2,1.76.61,2.27.41.51,1,.77,1.77.77.7,0,1.25-.23,1.64-.68.39-.46.58-1.11.58-1.98v-16.31h5.83Z"/>
      <path class="cls-1" d="M104.83,19.15c1.89,1,3.35,2.41,4.38,4.21,1.03,1.81,1.55,3.9,1.55,6.26s-.52,4.42-1.55,6.24c-1.04,1.82-2.5,3.23-4.4,4.23-1.9,1-4.1,1.5-6.6,1.5h-8.97v-23.95h8.97c2.52,0,4.73.5,6.62,1.5ZM102.98,34.74c1.23-1.21,1.84-2.91,1.84-5.12s-.61-3.92-1.84-5.15c-1.23-1.23-2.95-1.84-5.15-1.84h-2.76v13.92h2.76c2.21,0,3.92-.6,5.15-1.81Z"/>
      <path class="cls-1" d="M119.87,22.33v4.84h7.81v4.5h-7.81v5.25h8.84v4.67h-14.67v-23.95h14.67v4.67h-8.84Z"/>
      <path class="cls-1" d="M154.98,17.65l-8.5,23.95h-7.3l-8.5-23.95h6.21l5.94,18.08,5.97-18.08h6.17Z"/>
    </g>
  </g>
  <circle class="cls-1" cx="4.79" cy="50.71" r="4.44"/>
  <polyline class="cls-1" points="1.87 1.22 1.87 1.17 1.91 1.17"/>
</svg>